<svg width="680" viewBox="0 0 680 470" role="img" xmlns="http://www.w3.org/2000/svg" font-family="Segoe UI, Arial, sans-serif">
<title>Kien truc va luong xu ly cua ung dung IELTS</title>
<desc>Trinh duyet goi qua middleware xac thuc JWT toi cac API route auth, ky nang-AI va admin; cac route dung tang lib chung de noi toi Groq, MySQL va Deepgram.</desc>
<rect width="680" height="470" fill="#ffffff"/>
<defs>
<marker id="a2" markerWidth="9" markerHeight="9" refX="7" refY="3" orient="auto">
<path d="M0,0 L7,3 L0,6 Z" fill="#64748b"/>
</marker>
</defs>

<g stroke="#64748b" stroke-width="1.4" fill="none" marker-end="url(#a2)">
<line x1="340" y1="98" x2="340" y2="124"/>
<line x1="340" y1="170" x2="135" y2="196"/>
<line x1="340" y1="170" x2="340" y2="196"/>
<line x1="340" y1="170" x2="548" y2="196"/>
<line x1="132" y1="256" x2="200" y2="298"/>
<line x1="340" y1="256" x2="340" y2="298"/>
<line x1="548" y1="256" x2="480" y2="298"/>
<line x1="255" y1="360" x2="160" y2="398"/>
<line x1="340" y1="360" x2="340" y2="398"/>
<line x1="425" y1="360" x2="520" y2="398"/>
</g>

<g fill="#eff6ff" stroke="#2563eb" stroke-width="1.3"><rect x="120" y="50" width="440" height="48" rx="9"/></g>
<text x="340" y="71" text-anchor="middle" font-size="13.5" font-weight="500" fill="#1e3a8a">Trinh duyet - Client Components</text>
<text x="340" y="88" text-anchor="middle" font-size="11" fill="#1e3a8a">pages - Writing/Reading/Listening/Speaking Test - hooks</text>

<g fill="#f8fafc" stroke="#64748b" stroke-width="1.3"><rect x="215" y="124" width="250" height="46" rx="9"/></g>
<text x="340" y="145" text-anchor="middle" font-size="13" font-weight="500" fill="#334155">middleware.ts</text>
<text x="340" y="161" text-anchor="middle" font-size="11" fill="#334155">xac thuc JWT - chan route</text>

<g fill="#f8fafc" stroke="#64748b" stroke-width="1.3"><rect x="42" y="198" width="182" height="58" rx="9"/></g>
<text x="133" y="221" text-anchor="middle" font-size="12.5" font-weight="500" fill="#334155">API /auth/*</text>
<text x="133" y="238" text-anchor="middle" font-size="10.5" fill="#334155">login - register</text>
<text x="133" y="251" text-anchor="middle" font-size="10.5" fill="#334155">guest - me - logout</text>

<g fill="#fffbeb" stroke="#d97706" stroke-width="1.3"><rect x="249" y="198" width="182" height="58" rx="9"/></g>
<text x="340" y="221" text-anchor="middle" font-size="12.5" font-weight="500" fill="#92400e">API ky nang + AI</text>
<text x="340" y="238" text-anchor="middle" font-size="10.5" fill="#92400e">score - ideas - explain</text>
<text x="340" y="251" text-anchor="middle" font-size="10.5" fill="#92400e">submit - chat - tts</text>

<g fill="#f8fafc" stroke="#64748b" stroke-width="1.3"><rect x="456" y="198" width="182" height="58" rx="9"/></g>
<text x="547" y="221" text-anchor="middle" font-size="12.5" font-weight="500" fill="#334155">API /admin/*</text>
<text x="547" y="238" text-anchor="middle" font-size="10.5" fill="#334155">CRUD 4 ky nang</text>
<text x="547" y="251" text-anchor="middle" font-size="10.5" fill="#334155">(chi admin)</text>

<g fill="#eff6ff" stroke="#2563eb" stroke-width="1.3"><rect x="120" y="300" width="440" height="58" rx="9"/></g>
<text x="340" y="323" text-anchor="middle" font-size="13" font-weight="500" fill="#1e3a8a">lib/ - tang dung chung</text>
<text x="340" y="342" text-anchor="middle" font-size="11" fill="#1e3a8a">auth.ts - jwt.ts - ai/client.ts - db/ - utils.ts</text>

<g fill="#f0fdf4" stroke="#16a34a" stroke-width="1.3"><rect x="80" y="400" width="160" height="46" rx="9"/></g>
<text x="160" y="421" text-anchor="middle" font-size="12.5" font-weight="500" fill="#166534">Deepgram</text>
<text x="160" y="437" text-anchor="middle" font-size="10.5" fill="#166534">TTS giong doc</text>

<g fill="#fffbeb" stroke="#d97706" stroke-width="1.3"><rect x="260" y="400" width="160" height="46" rx="9"/></g>
<text x="340" y="421" text-anchor="middle" font-size="12.5" font-weight="500" fill="#92400e">Groq AI (LLM)</text>
<text x="340" y="437" text-anchor="middle" font-size="10.5" fill="#92400e">llama-3.3-70b</text>

<g fill="#f0fdf4" stroke="#16a34a" stroke-width="1.3"><rect x="440" y="400" width="160" height="46" rx="9"/></g>
<text x="520" y="421" text-anchor="middle" font-size="12.5" font-weight="500" fill="#166534">MySQL</text>
<text x="520" y="437" text-anchor="middle" font-size="10.5" fill="#166534">Drizzle ORM</text>

<text x="120" y="35" font-size="11" fill="#64748b">xanh duong = tang ung dung - vang = AI - xanh la = du lieu/dich vu ngoai - xam = ha tang</text>
</svg>
